#N canvas 924 343 562 422 12;
#X obj 126 149 snapshot~;
#X obj 126 173 abs;
#X obj 150 89 tgl 19 0 empty empty empty 0 -10 0 12 #fcfcfc #000000 #000000 0 1;
#X obj 15 17 vsl 12 75 0 1 0 0 empty empty empty 0 -9 0 12 #0f4710 #ff8300 #202020 0 0;
#X obj 64 94 line;
#X msg 64 71 \$1 50;
#X obj 64 47 expr if($f1 > $f2 \, $f1 \, $f2 * 0.95);
#X obj 152 116 metro 5;
#X obj 124 19 inlet~;
#X obj 326 28 bang~;
#X obj 326 64 0;
#X obj 364 65 + 1;
#X obj 326 112 == 1;
#X obj 326 136 sel 1;
#X obj 326 88 % 50;
#X floatatom 14 97 5 0 0 0 - - - 8;
#X obj 37 183 outlet~;
#X obj 38 142 *~;
#X msg 74 121 \$1 50;
#X obj 74 144 line~;
#X obj 29 17 vsl 12 75 0 1 0 0 empty empty empty 0 -9 0 12 #ffffff #404040 #202020 0 0;
#X obj 60 3 loadbang;
#X obj 60 27 1;
#X connect 0 0 1 0;
#X connect 1 0 6 0;
#X connect 2 0 7 0;
#X connect 4 0 3 0;
#X connect 4 0 6 1;
#X connect 4 0 15 0;
#X connect 5 0 4 0;
#X connect 6 0 5 0;
#X connect 7 0 0 0;
#X connect 8 0 0 0;
#X connect 8 0 17 0;
#X connect 9 0 10 0;
#X connect 10 0 11 0;
#X connect 10 0 14 0;
#X connect 11 0 10 1;
#X connect 12 0 13 0;
#X connect 13 0 0 0;
#X connect 14 0 12 0;
#X connect 17 0 16 0;
#X connect 18 0 19 0;
#X connect 19 0 17 1;
#X connect 20 0 18 0;
#X connect 21 0 22 0;
#X connect 22 0 20 0;
#X coords 0 -1 1 1 35 108 2 10 10;
