#N canvas 494 431 579 373 12;
#X declare -lib aoo;
#X declare -lib osc;
#X obj 35 36 inlet;
#X obj 301 25 declare -lib aoo;
#X obj 301 50 declare -lib osc;
#X msg 90 29 invite localhost 9311 1;
#X msg 101 62 uninvite localhost 9311 1;
#X msg 317 248 \; pd dsp 1;
#X msg 319 294 \; pd dsp 0;
#X msg 80 136 0;
#X msg 35 163 port \$1;
#X floatatom 35 136 5 0 0 0 - - - 0;
#X text 97 163 change UDP port;
#X text 114 136 0 = don't listen;
#X obj 40 258 aoo_receive~ 1 0 1;
#X obj 206 214 aoo_receive~ 1 0 2;
#X obj 35 93 route sink_port;
#X obj 42 362 outlet~;
#X obj 167 362 outlet~;
#X connect 0 0 14 0;
#X connect 3 0 12 0;
#X connect 3 0 13 0;
#X connect 4 0 12 0;
#X connect 7 0 8 0;
#X connect 8 0 12 0;
#X connect 8 0 13 0;
#X connect 9 0 8 0;
#X connect 12 0 15 0;
#X connect 13 0 16 0;
#X connect 14 0 9 0;
