#N canvas 561 103 1209 618 12;
#X floatatom 58 187 5 0 0 0 - - - 0;
#X msg 94 112 disconnect;
#X obj 191 111 r \$0_to_client;
#X obj 186 198 s \$0_from_client;
#X floatatom 32 26 9 0 0 2 port_no port_no - 12;
#X msg 324 70 group_join test_5g _ \$1 _;
#X obj 323 103 s \$0_to_client;
#X obj 342 134 print prope;
#X msg 616 27 peer_list;
#X obj 71 223 r \$0_from_client;
#X obj 71 271 route test_5g;
#X listbox 71 319 62 0 0 0 - - - 0;
#X obj 71 247 route peer_ping peer, f 36;
#X obj 195 271 route test_5g;
#X listbox 72 342 62 0 0 0 - - - 0;
#X obj 195 295 list prepend;
#X obj 71 295 list prepend;
#X obj 367 269 s \$0_to_client;
#X msg 316 197 target test_5g;
#X obj 695 255 route parameter volume;
#X listbox 689 94 20 0 0 0 - - - 0;
#X obj 689 121 oscformat /parameter;
#X listbox 841 94 20 0 0 0 - - - 0;
#X obj 841 121 oscformat /volume;
#X listbox 684 302 20 0 0 0 - - - 0;
#X listbox 836 302 20 0 0 0 - - - 0;
#X msg 359 227 target test_5g u3;
#X obj 128 27 bng 19 250 50 0 empty connect_client connect_client 0 -10 0 12 #fcfcfc #000000 #000000;
#X obj 232 38 bng 19 250 50 0 empty connect_peer connect_peer 0 -10 0 12 #fcfcfc #000000 #000000;
#X msg 335 37 symbol user1, f 16;
#X obj 334 9 r peer_name;
#X obj 258 46 del 500;
#X listbox 523 304 20 0 0 0 - - - 0;
#X obj 523 252 route mesg_5g;
#X obj 523 276 list;
#N canvas 209 352 450 300 parsing_received_osc_messages 0;
#X obj 30 17 r \$0_from_client;
#X obj 30 41 route msg, f 36;
#X obj 69 106 list trim;
#X obj 69 130 route osc;
#X obj 69 154 oscparse;
#X obj 41 64 list split 3;
#X obj 71 185 list trim;
#X obj 71 209 outlet;
#X connect 0 0 1 0;
#X connect 1 0 5 0;
#X connect 2 0 3 0;
#X connect 3 0 4 0;
#X connect 4 0 6 0;
#X connect 5 1 2 0;
#X connect 6 0 7 0;
#X restore 537 213 pd parsing_received_osc_messages;
#N canvas 253 207 450 300 formatting_osc_messages_to_transmit 0;
#X obj 31 97 s \$0_to_client;
#X obj 29 31 inlet;
#X obj 208 74 list prepend osc;
#X obj 208 102 s \$0_to_client;
#X obj 206 36 inlet;
#X obj 31 69 list prepend raw;
#X obj 65 35 print check;
#X connect 1 0 5 0;
#X connect 1 0 6 0;
#X connect 2 0 3 0;
#X connect 4 0 2 0;
#X connect 5 0 0 0;
#X restore 538 174 pd formatting_osc_messages_to_transmit;
#X obj 44 319 bng 19 250 50 0 empty empty empty 0 -10 0 12 #fcfcfc #000000 #000000;
#X obj 535 128 oscformat mesg_5g;
#X listbox 535 105 20 0 0 0 - - - 0;
#X msg 690 60 0;
#X msg 732 60 0 0;
#X msg 840 58 0;
#X msg 882 58 0 0;
#X floatatom 836 349 5 0 0 0 - - - 0;
#X floatatom 903 349 5 0 0 0 - - - 0;
#X obj 836 325 unpack 0 0;
#X obj 58 163 UoG_aoo_client;
#X msg 33 53 port_no \$1;
#X obj 128 51 del 100;
#X floatatom 860 161 5 0 0 2 source_port source_port - 0;
#X msg 860 184 source_port \$1;
#X msg 43 417 \; port_no 9211 \; connect_client bang \; peer_name set symbol user1 \; connect_peer bang \; source_port 9311 \; sink_port 9411 \;;
#X msg 257 416 \; port_no 9212 \; connect_client bang \; peer_name set symbol user2 \; connect_peer bang \; source_port 9312 \; sink_port 9412 \;;
#X msg 474 416 \; port_no 9213 \; connect_client bang \; peer_name set symbol user3 \; connect_peer bang \; source_port 9313 \; sink_port 9413 \;;
#X floatatom 982 161 5 0 0 2 sink_port sink_port - 0;
#X msg 982 184 sink_port \$1;
#X obj 861 240 bng 19 250 50 0 empty empty empty 0 -10 0 12 #fcfcfc #000000 #000000;
#X msg 997 15 \; pd dsp 1;
#X msg 999 61 \; pd dsp 0;
#X floatatom 1019 283 5 0 0 0 - - - 0;
#X obj 1019 259 env~ 1024;
#N canvas 0 50 450 387 output 0;
#X obj 105 188 inlet~;
#X obj 173 191 inlet~;
#X obj 238 100 loadbang;
#X msg 238 124 -100;
#X obj 238 148 s /\$0/master;
#X obj 143 108 nbx 5 14 -100 0 0 0 /\$0/master /\$0/master empty 0 -8 0 10 #fcfcfc #000000 #000000 0 256;
#X obj 201 105 cnv 15 1 1 empty empty dB 0 12 0 14 #fcfcfc #000000 0;
#X obj 105 105 cnv 15 1 1 empty empty Vol: 0 12 0 14 #fcfcfc #000000 0;
#X obj 227 191 r /\$0/master;
#X obj 227 215 + 100;
#X obj 227 239 dbtorms;
#X msg 227 263 \$1 50;
#X obj 227 288 line~;
#X obj 105 322 *~;
#X obj 174 323 *~;
#X obj 104 352 dac~;
#X connect 0 0 13 0;
#X connect 1 0 14 0;
#X connect 2 0 3 0;
#X connect 3 0 4 0;
#X connect 8 0 9 0;
#X connect 9 0 10 0;
#X connect 10 0 11 0;
#X connect 11 0 12 0;
#X connect 12 0 13 1;
#X connect 12 0 14 1;
#X connect 13 0 15 0;
#X connect 14 0 15 1;
#X coords 0 -1 1 1 120 30 2 100 100;
#X restore 997 319 pd output;
#X obj 861 216 UoG_5G_aoo_send;
#X obj 981 216 UoG_5G_aoo_receive;
#X obj 754 462 ggee/shell;
#X obj 714 518 print;
#X msg 756 426 hostname;
#X listbox 730 561 20 0 0 0 - - - 0;
#X obj 754 487 list;
#X msg 184 161 connect localhost 9111;
#X msg 115 82 connect SL-macBook.local 9111;
#X obj 1106 254 bng 20 250 50 0 empty empty empty 0 -10 0 12 #fcfcfc #000000 #000000;
#X obj 774 525 s \$0_message;
#X obj 558 76 r \$0_message;
#X connect 1 0 47 0;
#X connect 2 0 47 0;
#X connect 4 0 48 0;
#X connect 5 0 6 0;
#X connect 5 0 7 0;
#X connect 8 0 6 0;
#X connect 9 0 12 0;
#X connect 10 0 16 0;
#X connect 12 0 10 0;
#X connect 12 1 13 0;
#X connect 13 0 15 0;
#X connect 15 0 14 0;
#X connect 16 0 11 0;
#X connect 16 0 37 0;
#X connect 18 0 17 0;
#X connect 19 0 24 0;
#X connect 19 1 25 0;
#X connect 20 0 21 0;
#X connect 21 0 36 1;
#X connect 22 0 23 0;
#X connect 23 0 36 1;
#X connect 25 0 46 0;
#X connect 26 0 17 0;
#X connect 27 0 49 0;
#X connect 28 0 31 0;
#X connect 29 0 5 0;
#X connect 30 0 29 0;
#X connect 31 0 29 0;
#X connect 33 0 34 0;
#X connect 34 0 32 0;
#X connect 35 0 33 0;
#X connect 35 0 19 0;
#X connect 38 0 36 0;
#X connect 39 0 38 0;
#X connect 40 0 20 0;
#X connect 41 0 20 0;
#X connect 42 0 22 0;
#X connect 43 0 22 0;
#X connect 46 0 44 0;
#X connect 46 1 45 0;
#X connect 47 0 0 0;
#X connect 47 1 3 0;
#X connect 48 0 47 1;
#X connect 49 0 71 0;
#X connect 50 0 51 0;
#X connect 51 0 63 0;
#X connect 55 0 56 0;
#X connect 56 0 64 0;
#X connect 61 0 60 0;
#X connect 63 0 57 0;
#X connect 64 0 61 0;
#X connect 64 0 62 0;
#X connect 64 2 72 0;
#X connect 65 0 66 0;
#X connect 65 0 69 0;
#X connect 67 0 65 0;
#X connect 69 0 68 0;
#X connect 69 0 73 0;
#X connect 71 0 47 0;
#X connect 74 0 38 0;
