#N canvas 711 187 725 564 12;
#X declare -lib aoo;
#X declare -lib osc;
#X obj 35 36 inlet;
#X obj 301 25 declare -lib aoo;
#X obj 301 50 declare -lib osc;
#X obj 33 412 outlet;
#X obj 158 412 outlet;
#X msg 185 240 stop;
#X msg 176 200 start;
#X text 225 201 start streaming;
#X text 231 240 stop streaming;
#X msg 137 78 remove localhost 9411 1;
#X msg 453 23 \; pd dsp 1;
#X msg 454 64 \; pd dsp 0;
#X obj 89 204 osc~ 440;
#N canvas 708 68 677 815 advanced 0;
#X msg 121 582 packetsize \$1;
#X text 230 558 max. UDP packet size (default: 512 bytes);
#X text 177 312 buffersize (ms) for resending lost packets (default: 1000);
#X msg 72 224 ping \$1;
#X text 138 224 set ping interval in ms (default: 1000) \, 0 = off;
#X msg 39 58 port \$1;
#X msg 51 112 id \$1;
#X msg 100 392 redundancy \$1;
#X msg 104 475 codec_set <param> <value>;
#X msg 118 508 codec_get <param>;
#X text 253 507 get the value of a codec parameter;
#X obj 39 1014 s \$0-msg;
#X text 254 528 responds with a [codec_get <param> <value>( message.;
#X text 298 476 set the value of a codec parameter;
#X text 105 447 see the relevant codec subpatch for available parameters.;
#X text 105 427 set/get a parameter of the currently selected codec.;
#X msg 92 331 resend \$1;
#X text 178 333 set to 0 to disable packet resending.;
#X msg 135 808 dll_bandwith \$1;
#X msg 126 755 dynamic_resampling \$1;
#X msg 86 32 0;
#X text 292 742 enable/disable dynamic resampling (off by default), f 34;
#X msg 154 965 binary \$1;
#X obj 154 940 tgl 19 0 empty empty empty 0 -10 0 12 #fcfcfc #000000 #000000 0 1;
#X floatatom 39 30 5 0 0 0 - - - 0;
#X floatatom 51 88 5 0 0 0 - - - 0;
#X floatatom 72 200 5 0 0 0 - - - 0;
#X floatatom 92 306 5 0 0 0 - - - 0;
#X floatatom 100 366 5 0 0 0 - - - 0;
#X floatatom 121 556 6 0 0 0 - - - 0;
#X obj 126 729 tgl 19 0 empty empty empty 0 -10 0 12 #fcfcfc #000000 #000000 0 1;
#X floatatom 135 784 8 0 0 0 - - - 0;
#X text 235 953 enable/disable binary message format (on by default), f 36;
#X floatatom 83 253 5 0 0 0 - - - 0;
#X msg 83 277 stream_time \$1;
#X text 200 277 set stream timestamp interval in ms (default: 1000) \, 0 = off;
#X floatatom 145 890 8 0 0 0 - - - 0;
#X msg 145 913 buffersize \$1;
#X text 258 915 set send buffer size in ms (default: 25 ms);
#X msg 125 661 resample_method \$1;
#X symbolatom 125 635 10 0 0 0 - - - 0;
#X text 270 669 "cubic": cubic interpolation (= default);
#X text 270 689 "linear": linear interpolation;
#X text 270 709 "hold": sample and hold;
#X text 272 627 Set the resample method.;
#X text 272 648 Possible values (in decreasing quality):;
#X text 210 382 redundancy might help to reduce packet loss under certain circumstances \, at the cost of increased network traffic., f 58;
#X text 210 360 number of times each packet should be sent (default: 1);
#X text 230 579 the default is safe for the public internet \, but you may increase it on connections with a larger MTU., f 52;
#X text 257 794 time DLL filter bandwidth for dynamic resampling (default: 0.012), f 38;
#X msg 140 845 real_samplerate;
#X text 267 843 get the "real" samplerate as measured by the time DLL filter and output as a [real_samplerate <f>( message., f 39;
#X msg 61 169 set \$1 \$2;
#X msg 61 141 1000 1;
#X msg 118 141 10001 4;
#X text 107 60 change UDP port;
#X text 145 170 set UDP port and source ID;
#X text 108 113 change source ID;
#X text 121 33 0 = don't listen;
#X connect 0 0 11 0;
#X connect 3 0 11 0;
#X connect 5 0 11 0;
#X connect 6 0 11 0;
#X connect 7 0 11 0;
#X connect 8 0 11 0;
#X connect 9 0 11 0;
#X connect 16 0 11 0;
#X connect 18 0 11 0;
#X connect 19 0 11 0;
#X connect 20 0 5 0;
#X connect 22 0 11 0;
#X connect 23 0 22 0;
#X connect 24 0 5 0;
#X connect 25 0 6 0;
#X connect 26 0 3 0;
#X connect 27 0 16 0;
#X connect 28 0 7 0;
#X connect 29 0 0 0;
#X connect 30 0 19 0;
#X connect 31 0 18 0;
#X connect 33 0 34 0;
#X connect 34 0 11 0;
#X connect 36 0 37 0;
#X connect 37 0 11 0;
#X connect 39 0 11 0;
#X connect 40 0 39 0;
#X connect 50 0 11 0;
#X connect 52 0 11 0;
#X connect 53 0 52 0;
#X connect 54 0 52 0;
#X restore 352 364 pd advanced;
#N canvas 292 330 640 515 message 0;
#X obj 42 447 s \$0-msg;
#X obj 175 351 fudiformat;
#X msg 175 324 bar 1 2 3;
#X obj 42 419 list prepend 0;
#X floatatom 154 420 5 0 0 0 - - - 0;
#X text 200 421 channel;
#X obj 42 360 list prepend osc;
#X obj 175 380 list prepend fudi;
#X text 39 274 OSC message;
#X text 175 295 FUDI message;
#X obj 316 392 pack f f 144, f 15;
#X obj 475 380 - 1;
#X obj 475 406 + 144;
#X floatatom 475 355 5 0 0 0 - - - 0;
#X text 313 250 MIDI notes;
#X floatatom 316 275 5 0 0 0 - - - 0;
#X text 358 276 pitch;
#X obj 316 353 makenote 100 1000;
#X text 517 354 MIDI channel;
#X floatatom 374 298 5 0 0 0 - - - 0;
#X floatatom 432 327 5 0 0 0 - - - 0;
#X text 415 299 velocity;
#X text 474 326 duration;
#X text 31 107 "channel" specifies the (audio) channel that the message is associated with., f 77;
#X msg 316 422 list 0 midi \$3 \$1 \$2;
#X obj 316 450 s \$0-msg;
#X text 33 70 They use the following format:;
#X msg 258 70 list <channel> <type> <data...>;
#X text 33 27 Stream messages are arbitrary messages that can be either sent together with audio data \, or as a pure message stream (see "null" format)., f 73;
#X text 34 133 "type" and "data" are the same as for stream metadata \, see [pd metadata]., f 74;
#X text 35 159 Stream messages are scheduled sample accurately \, based on the logical time \, similar to [vline~]., f 78;
#X text 34 201 They appear at the corresponding [aoo_sink~] object as [msg ...( messages \, dispatched at the correct time offset \, albeit with a one block delay., f 76;
#X msg 42 301 set foo \, 1 2 3;
#X obj 42 331 oscformat;
#X connect 1 0 7 0;
#X connect 2 0 1 0;
#X connect 3 0 0 0;
#X connect 4 0 3 1;
#X connect 6 0 3 0;
#X connect 7 0 3 0;
#X connect 10 0 24 0;
#X connect 11 0 12 0;
#X connect 12 0 10 2;
#X connect 13 0 11 0;
#X connect 15 0 17 0;
#X connect 17 0 10 0;
#X connect 17 1 10 1;
#X connect 19 0 17 1;
#X connect 20 0 17 2;
#X connect 24 0 25 0;
#X connect 32 0 33 0;
#X connect 33 0 6 0;
#X restore 128 364 pd message;
#X text 6 364 stream messages:;
#X text 216 364 advanced settings:;
#X msg 34 129 port \$1;
#X msg 81 103 0;
#X floatatom 34 101 5 0 0 0 - - - 0;
#X text 102 131 change UDP port;
#X text 116 104 0 = don't listen;
#X obj 116 234 r \$0-msg;
#X obj 95 277 aoo_send~ 1 0 1;
#X obj 34 156 s \$0-msg;
#X obj 35 60 route source_port;
#N canvas 690 112 656 719 events 0;
#X obj 37 26 inlet;
#X obj 37 84 outlet;
#X text 52 551 It also tells you the network latency:;
#X text 54 574 <delta1> is the approx. delay between source and sink (in ms), f 62;
#X text 54 598 <delta2> is the approx. delay between sink and source (in ms), f 62;
#X text 66 139 A sink invites you to send audio messages.;
#X text 52 511 A periodic message exchanged between source and sink \, so the source knows that the sink is receiving its messages., f 73;
#X obj 115 56 tgl 19 0 \$0-ping \$0-ping empty 17 7 0 10 #fcfcfc #000000 #000000 0 1;
#X msg 38 242 uninvite <host> <port> <ID>;
#X text 64 355 A sink has been added \, either by the user or through an invitation., f 68;
#X text 64 407 A sink has been removed by the user.;
#X msg 39 116 invite <host> <port> <ID> [<type> <data...>], f 46;
#X text 64 162 'type' and 'data' are the (optional) invitation metadata \, see [pd metadata] in [aoo_receive~].;
#N canvas 210 311 480 403 route 0;
#X obj 47 40 inlet;
#X obj 47 245 outlet;
#X obj 79 216 print aoo_send~;
#X obj 118 98 r \$0-ping;
#X obj 79 126 spigot;
#X obj 47 98 t b a;
#X obj 79 153 list prepend ping;
#X obj 79 185 list trim;
#X obj 244 274 route osc fudi, f 20;
#X obj 244 304 oscparse;
#X obj 312 304 fudiparse;
#X obj 244 247 list trim;
#X obj 247 217 list split 3;
#X text 131 126 filter pings;
#X obj 279 127 print aoo_send~;
#X obj 47 69 route ping, f 29;
#X obj 247 99 t a a;
#X obj 247 187 route invite;
#X text 260 160 parse invite metadata;
#X obj 244 332 print DATA;
#X connect 0 0 15 0;
#X connect 3 0 4 1;
#X connect 4 0 6 0;
#X connect 5 0 1 0;
#X connect 5 1 4 0;
#X connect 6 0 7 0;
#X connect 7 0 2 0;
#X connect 8 0 9 0;
#X connect 8 1 10 0;
#X connect 9 0 19 0;
#X connect 10 0 19 0;
#X connect 11 0 8 0;
#X connect 12 1 11 0;
#X connect 15 0 5 0;
#X connect 15 1 16 0;
#X connect 16 0 17 0;
#X connect 16 1 14 0;
#X connect 17 0 12 0;
#X restore 37 54 pd route;
#X f 9;
#X text 140 55 post pings;
#X msg 35 329 add <host> <port> <ID>;
#X msg 35 381 remove <host> <port> <ID>;
#X text 66 267 A sink asks you to stop sending audio messages.;
#X text 36 810 ---;
#X text 52 665 <packetloss> is the current packet loss in percent (averaged between pings). If you encounter continuous high packet loss \, you might want to adjust the codec settings (e.g. reduce the bandwidth)., f 74;
#X msg 35 484 ping <host> <port> <ID> <delta1> <delta2> <network_rtt> <total_rtt> <packet_loss>, f 81;
#X text 54 642 <total_rtt> is the total roundtrip time (in ms), f 49;
#X text 61 456 One or more frames have been resent (= packet loss);
#X text 54 619 <network_rtt> is the approx. network roundtrip time (in ms), f 74;
#X text 51 718 NOTE: The roundtrip time does not necessarily equal the sum of the deltas because the clocks may be out of sync. If one clock runs significantly early or late \, the deltas can even be negative!, f 75;
#X text 52 768 HINT: The clock time offset can estimated with (delta1 - delta2) * 0.5., f 73;
#X msg 36 433 frame_resent <host> <port> <ID> <count>;
#X text 65 198 If 'auto_invite' is off \, you have to manually accept it with the [invite( method., f 57;
#X text 64 288 If 'auto_invite' is off \, you have to manually accept it with the [uninvite( method., f 57;
#X connect 0 0 13 0;
#X connect 13 0 1 0;
#X restore 95 306 pd events;
#X text 121 332 ping;
#X text 170 306 <= events;
#X obj 95 332 bng 19 250 50 0 empty empty empty 0 -10 0 12 #fcfcfc #000000 #000000;
#X msg 126 45 add localhost 9412 1;
#X msg 290 152 add SL-macBook.local 9411 1;
#X connect 0 0 25 0;
#X connect 5 0 23 0;
#X connect 6 0 23 0;
#X connect 9 0 23 0;
#X connect 12 0 23 0;
#X connect 17 0 24 0;
#X connect 18 0 17 0;
#X connect 19 0 17 0;
#X connect 22 0 23 0;
#X connect 23 0 26 0;
#X connect 25 0 19 0;
#X connect 26 0 29 0;
#X connect 29 0 3 0;
#X connect 30 0 23 0;
#X connect 31 0 23 0;
